#!OML:ASF H:\BreakDance\Project 1\Capture day 1\Session 1\Male.ASF
:FULLY-SPECIFIED
:DEGREES
532
root 7.5372 24.3331 -4.78789 -83.3862 -37.7919 -125.801
lowerback -6.76153 5.98092 6.8073
upperback -6.39369 7.57505 -9.81824
thorax -0.749318 3.50885 -13.9613
lowerneck -12.0012 7.23576 0.114375
upperneck -16.9214 7.47052 -20.3153
head -2.13696 3.95752 -6.1299
rclavicle -1.27222e-014 -1.90833e-014
rhumerus -10.8355 -4.53888 -71.5313
rradius 44.2396
rwrist -15.7932
rhand -27.9962 -8.58373
rfingers 7.12502
rthumb -1.38227 -38.559
lclavicle -1.27222e-014 -1.90833e-014
lhumerus -4.39052 -38.0725 83.0851
lradius 52.9369
lwrist -7.02777
lhand -30.2125 -30.2481
lfingers 7.12502
lthumb -3.52272 -0.297508
rfemur 33.4124 -30.6403 -17.2114
rtibia 110.697
rfoot 15.8289 18.5191
rtoes 35.635
lfemur -65.9988 22.1028 -4.86527
ltibia 95.3277
lfoot 3.64278 0.294109
ltoes -17.1765
533
root 7.54827 24.3649 -4.79282 -81.6208 -40.5092 -129.612
lowerback -5.32573 5.78407 8.24432
upperback -6.05576 7.30536 -8.82982
thorax -1.22914 3.31578 -13.8431
lowerneck -12.4086 6.9616 0.450321
upperneck -16.5007 7.06651 -20.5948
head -1.95074 3.6658 -6.26494
rclavicle -1.94014e-013 -8.42847e-014
rhumerus -10.8881 -2.87738 -71.2358
rradius 41.9866
rwrist -15.9693
rhand -26.7848 -8.66355
rfingers 7.12502
rthumb -0.212273 -38.6432
lclavicle -1.94014e-013 -8.42847e-014
lhumerus -4.16709 -38.1472 83.4066
lradius 50.9031
lwrist -6.3156
lhand -30.1329 -30.2946
lfingers 7.12502
lthumb -3.44577 -0.342657
rfemur 32.2052 -31.4268 -18.3416
rtibia 110.024
rfoot 13.9798 20.2656
rtoes 34.0916
lfemur -65.7747 21.2014 -6.35349
ltibia 89.3846
lfoot 1.64092 2.73744
ltoes -19.7533
534
root 7.54664 24.3871 -4.81201 -79.7055 -43.0589 -133.331
lowerback -3.81127 5.54535 9.5737
upperback -5.68522 7.05152 -7.76861
thorax -1.74344 3.13376 -13.5787
lowerneck -12.7418 6.69245 0.717553
upperneck -16.2459 6.65189 -20.8199
head -1.83696 3.38433 -6.3835
rclavicle -1.74931e-013 -3.81667e-014
rhumerus -10.4682 -1.0006 -70.8336
rradius 39.882
rwrist -15.8023
rhand -25.658 -8.69788
rfingers 7.12502
rthumb 0.876041 -38.6758
lclavicle -1.74931e-013 -3.81667e-014
lhumerus -3.74662 -38.2663 83.7364
lradius 49.0257
lwrist -5.43432
lhand -29.997 -30.4708
lfingers 7.12502
lthumb -3.31453 -0.516838
rfemur 30.2323 -32.3756 -18.6627
rtibia 108.915
rfoot 11.7105 21.6078
rtoes 31.7436
lfemur -65.0227 20.4895 -7.4106
ltibia 83.1669
lfoot -0.0331033 4.2131
ltoes -21.4196
535
root 7.52897 24.3969 -4.8467 -77.6664 -45.3917 -136.916
lowerback -2.26586 5.24281 10.7887
upperback -5.28195 6.78475 -6.64565
thorax -2.27128 2.95322 -13.176
lowerneck -13.0155 6.44642 0.823654
upperneck -16.1361 6.2775 -20.899
head -1.79074 3.14286 -6.43529
rclavicle -2.70347e-014 3.89618e-014
rhumerus -9.5331 1.03347 -70.3357
rradius 37.9043
rwrist -15.071
rhand -24.6504 -8.6188
rfingers 7.12502
rthumb 1.84921 -38.5905
lclavicle -2.70347e-014 3.89618e-014
lhumerus -3.20515 -38.2175 84.0653
lradius 47.3415
lwrist -4.64239
lhand -29.6054 -30.6857
lfingers 7.12502
lthumb -2.93635 -0.726218
rfemur 27.4063 -33.4042 -18.1231
rtibia 107.409
rfoot 9.10071 22.3044
rtoes 28.5479
lfemur -63.7827 19.9537 -8.18918
ltibia 76.6829
lfoot -1.10576 4.50916
ltoes -21.3959
536
root 7.49311 24.396 -4.89202 -75.5407 -47.451 -140.34
lowerback -0.737158 4.90642 11.8238
upperback -4.86424 6.53356 -5.51554
thorax -2.79383 2.79195 -12.653
lowerneck -13.1633 6.20314 0.8651
upperneck -16.1176 5.91207 -20.8473
head -1.80236 2.92339 -6.44045
rclavicle 7.95139e-014 1.08139e-013
rhumerus -8.1667 2.93956 -69.751
rradius 36.0409
rwrist -13.6263
rhand -23.7528 -8.31583
rfingers 7.12502
rthumb 2.71607 -38.2783
lclavicle 7.95139e-014 1.08139e-013
lhumerus -2.59259 -38.1599 84.342
lradius 45.85
lwrist -4.09573
lhand -29.2255 -30.8641
lfingers 7.12502
lthumb -2.56954 -0.89984
rfemur 23.7164 -34.3503 -16.8678
rtibia 105.614
rfoot 6.25196 22.193
rtoes 24.6064
lfemur -62.0827 19.5004 -8.82626
ltibia 69.9984
lfoot -1.4514 4.13034
ltoes -20.9979
537
root 7.441 24.3851 -4.94705 -73.4014 -49.2167 -143.576
lowerback 0.781831 4.44205 12.6332
upperback -4.43555 6.31064 -4.39508
thorax -3.32783 2.69613 -12.0103
lowerneck -13.2321 5.95415 0.863905
upperneck -16.1096 5.55666 -20.6719
head -1.83748 2.71904 -6.40002
rclavicle 2.22639e-014 4.92986e-014
rhumerus -6.31232 4.58511 -69.1204
rradius 34.184
rwrist -11.3701
rhand -23.1664 -7.75576
rfingers 7.12502
rthumb 3.28245 -37.7102
lclavicle 2.22639e-014 4.92986e-014
lhumerus -1.93387 -38.1704 84.4727
lradius 44.6088
lwrist -3.7052
lhand -28.8752 -30.9016
lfingers 7.12502
lthumb -2.23121 -0.933535
rfemur 19.214 -35.0236 -15.0073
rtibia 103.595
rfoot 3.29327 21.1927
rtoes 20.1166
lfemur -59.9738 19.0855 -9.40726
ltibia 63.2482
lfoot -0.934202 3.66878
ltoes -20.3109
538
root 7.37693 24.3677 -5.009 -71.3404 -50.7487 -146.609
lowerback 2.32104 4.0857 13.2042
upperback -3.96839 6.02701 -3.27334
thorax -3.84893 2.51113 -11.2179
lowerneck -13.283 5.69588 0.814341
upperneck -16.0154 5.22505 -20.3871
head -1.85444 2.52958 -6.31235
rclavicle 6.67916e-014 -4.92986e-014
rhumerus -3.95588 5.90411 -68.4666
rradius 32.2931
rwrist -8.42568
rhand -22.9739 -7.03628
rfingers 7.12502
rthumb 3.46829 -36.9878
lclavicle 6.67916e-014 -4.92986e-014
lhumerus -1.18694 -38.1375 84.5022
lradius 43.4661
lwrist -3.50335
lhand -28.6033 -30.7548
lfingers 7.12502
lthumb -1.96859 -0.784151
rfemur 14.0863 -35.196 -12.6643
rtibia 101.412
rfoot 0.505319 19.3571
rtoes 16.0951
lfemur -57.4989 18.7031 -9.91698
ltibia 56.6487
lfoot 0.25075 3.66302
ltoes -20.287
539
root 7.30801 24.3472 -5.0747 -69.4227 -52.1561 -149.458
lowerback 3.89075 3.70336 13.5879
upperback -3.44943 5.72059 -2.1211
thorax -4.35086 2.32323 -10.2798
lowerneck -13.3419 5.41664 0.720438
upperneck -15.8117 4.90112 -20.0123
head -1.84179 2.34396 -6.18437
rclavicle 8.74653e-014 4.6118e-014
rhumerus -1.09462 6.90691 -67.8344
rradius 30.39
rwrist -5.12099
rhand -23.1364 -6.31971
rfingers 7.12502
rthumb 3.31135 -36.2737
lclavicle 8.74653e-014 4.6118e-014
lhumerus -0.25639 -38.1246 84.3213
lradius 42.3854
lwrist -3.14267
lhand -28.3848 -30.4849
lfingers 7.12502
lthumb -1.75752 -0.51236
rfemur 8.53797 -34.6682 -9.96256
rtibia 99.1222
rfoot -1.98533 16.8927
rtoes 12.6284
lfemur -54.7355 18.3722 -10.2654
ltibia 50.4694
lfoot 1.8574 4.34826
ltoes -21.1534
540
root 7.24065 24.3253 -5.14255 -67.6436 -53.5143 -152.177
lowerback 5.4674 3.30381 13.8073
upperback -2.86496 5.39291 -0.926055
thorax -4.79972 2.13678 -9.19288
lowerneck -13.4071 5.11776 0.614318
upperneck -15.5063 4.57486 -19.605
head -1.79823 2.15634 -6.04128
rclavicle -1.38354e-013 -1.1609e-013
rhumerus 2.2067 7.66026 -67.2482
rradius 28.5621
rwrist -1.91286
rhand -23.4984 -5.77462
rfingers 7.12502
rthumb 2.96175 -35.7338
lclavicle -1.38354e-013 -1.1609e-013
lhumerus 0.978772 -38.1769 83.8465
lradius 41.2885
lwrist -2.35449
lhand -28.2083 -30.103
lfingers 7.12502
lthumb -1.58704 -0.129146
rfemur 2.87659 -33.3365 -7.12973
rtibia 96.776
rfoot -4.22923 14.129
rtoes 9.997
lfemur -51.7862 18.0789 -10.3867
ltibia 44.9773
lfoot 3.44877 5.5593
ltoes -22.4632
